<svg id="Layer_1" data-name="Layer 1" xmlns="http://www.w3.org/2000/svg" viewBox="0 0 200 56.8"><path d="M36.61.48H44a12.43,12.43,0,0,1,3.35.41A7,7,0,0,1,49.72,2a4.88,4.88,0,0,1,1.45,1.76A5.11,5.11,0,0,1,51.66,6a4.58,4.58,0,0,1-.38,1.86,5,5,0,0,1-1.06,1.56,6.15,6.15,0,0,1-1.64,1.2,9.14,9.14,0,0,1-2.11.8l5.22,10.29H47.54l-4.87-10H40.18v10H36.61Zm3.57,10.18h2.06a7.18,7.18,0,0,0,2.22-.32,5.42,5.42,0,0,0,1.76-.9A4.08,4.08,0,0,0,47.8,6.15a4.56,4.56,0,0,0-.33-1.76A3.87,3.87,0,0,0,46.54,3a4.23,4.23,0,0,0-1.42-.89,5,5,0,0,0-1.81-.32H40.18Z"/><path d="M59.2,1.24A2.67,2.67,0,0,1,60.88.48V21.74H57.31V7.2C57.31,3.54,58.57,1.85,59.2,1.24Z"/><path d="M120.77,1.24a2.67,2.67,0,0,0-1.68-.76V21.74h3.58V7.2C122.67,3.54,121.4,1.85,120.77,1.24Z"/><path d="M77.79,22.21a11.94,11.94,0,0,1-4.61-.88,11.71,11.71,0,0,1-3.71-2.41A11.28,11.28,0,0,1,67,15.35a10.66,10.66,0,0,1,.66-9.92,11,11,0,0,1,1.82-2.22A11.37,11.37,0,0,1,71.83,1.5,11.93,11.93,0,0,1,74.64.39a12.92,12.92,0,0,1,6.3,0A11.93,11.93,0,0,1,83.75,1.5a11.09,11.09,0,0,1,4.18,3.93A10.29,10.29,0,0,1,89.1,8.05,10.6,10.6,0,0,1,89.51,11a10.81,10.81,0,0,1-.41,3,10.69,10.69,0,0,1-1.17,2.68,11.29,11.29,0,0,1-1.81,2.27,11.76,11.76,0,0,1-2.37,1.76,12,12,0,0,1-6,1.54Zm0-1.06A6.64,6.64,0,0,0,81,20.39a6.82,6.82,0,0,0,2.36-2.12,10,10,0,0,0,1.45-3.22A16.2,16.2,0,0,0,85.31,11a15.71,15.71,0,0,0-.48-4,9.52,9.52,0,0,0-1.45-3.15,6.81,6.81,0,0,0-2.36-2,7.58,7.58,0,0,0-6.49,0,6.69,6.69,0,0,0-2.35,2.05A9.32,9.32,0,0,0,70.74,7a15.71,15.71,0,0,0-.48,4,16.2,16.2,0,0,0,.48,4.06,9.78,9.78,0,0,0,1.44,3.22,6.52,6.52,0,0,0,5.61,2.88Z"/><path d="M94.31.48h7.08a22.46,22.46,0,0,1,5.62.61,9.68,9.68,0,0,1,3.93,2,10.06,10.06,0,0,1,3.6,7.87,11,11,0,0,1-.81,4.21,9.79,9.79,0,0,1-2.37,3.43,11.3,11.3,0,0,1-3.86,2.32,15.24,15.24,0,0,1-5.26.84H94.31Zm3.57,19.68h3.8a9.69,9.69,0,0,0,3.38-.59,7.67,7.67,0,0,0,2.76-1.76,8.37,8.37,0,0,0,1.86-2.88,10.63,10.63,0,0,0,.68-3.94,9.83,9.83,0,0,0-.64-3.62,8.54,8.54,0,0,0-1.79-2.82,8,8,0,0,0-2.75-1.84,9,9,0,0,0-3.48-.66H97.88Z"/><path d="M135.64,20.87a5.93,5.93,0,0,0,1.56-.22,4.67,4.67,0,0,0,1.37-.64,3.35,3.35,0,0,0,1-1,2.71,2.71,0,0,0,.37-1.44,3,3,0,0,0-.51-1.73,5.77,5.77,0,0,0-1.32-1.4,12.67,12.67,0,0,0-1.86-1.19c-.7-.37-1.41-.75-2.14-1.12s-1.44-.77-2.14-1.18a10.65,10.65,0,0,1-1.86-1.37,6.44,6.44,0,0,1-1.32-1.7,4.45,4.45,0,0,1-.51-2.16,5.42,5.42,0,0,1,.46-2.25,4.92,4.92,0,0,1,1.33-1.8,6.49,6.49,0,0,1,2.17-1.2,9.27,9.27,0,0,1,3-.43,10.5,10.5,0,0,1,2.69.32,6.5,6.5,0,0,1,2.08,1,5.67,5.67,0,0,1,1.52,1.53,8.16,8.16,0,0,1,1,2.12l-1.9.73A7.85,7.85,0,0,0,139.84,4a5.49,5.49,0,0,0-1.19-1.38,5,5,0,0,0-1.59-.89,6.16,6.16,0,0,0-2-.31,5,5,0,0,0-1.76.28,3.87,3.87,0,0,0-1.26.73,2.93,2.93,0,0,0-.75,1A2.79,2.79,0,0,0,131,4.58a2.56,2.56,0,0,0,.51,1.53,6.32,6.32,0,0,0,1.36,1.31,17.89,17.89,0,0,0,1.93,1.2L137,9.78c.75.4,1.49.81,2.21,1.24a11.8,11.8,0,0,1,1.93,1.4,6.79,6.79,0,0,1,1.36,1.66,4.08,4.08,0,0,1,.51,2,6,6,0,0,1-.48,2.38,5.21,5.21,0,0,1-1.44,1.93,7.11,7.11,0,0,1-2.39,1.31,10.36,10.36,0,0,1-3.31.48,9.92,9.92,0,0,1-2.74-.34,7,7,0,0,1-2.12-1A6.5,6.5,0,0,1,129,19.34a8.2,8.2,0,0,1-1.07-2.11l1.87-.85a7.3,7.3,0,0,0,.94,1.92A6,6,0,0,0,132,19.69a5.66,5.66,0,0,0,1.67.87A6.33,6.33,0,0,0,135.64,20.87Z"/><path d="M148,.48h3.65l8.27,16.29h.17L168.17.48h3.58V21.71h-3.58V4.31h-.12l-8.71,17.4h-.73L149.8,4.45h-.24V21.71H148Z"/><path d="M188.28,22.21a11.94,11.94,0,0,1-4.61-.88A11.71,11.71,0,0,1,180,18.92a11.28,11.28,0,0,1-2.48-3.57,10.66,10.66,0,0,1,.66-9.92A11,11,0,0,1,180,3.21a11.37,11.37,0,0,1,2.36-1.71A11.93,11.93,0,0,1,185.13.39a12.92,12.92,0,0,1,6.3,0,11.93,11.93,0,0,1,2.81,1.11,11.09,11.09,0,0,1,4.18,3.93,10.29,10.29,0,0,1,1.17,2.62A10.6,10.6,0,0,1,200,11a10.81,10.81,0,0,1-.41,3,10.69,10.69,0,0,1-1.17,2.68,11.29,11.29,0,0,1-1.81,2.27,11.76,11.76,0,0,1-2.37,1.76,12,12,0,0,1-6,1.54Zm0-1.06a6.58,6.58,0,0,0,3.22-.76,6.76,6.76,0,0,0,2.37-2.12,10,10,0,0,0,1.45-3.22A16.2,16.2,0,0,0,195.8,11a15.71,15.71,0,0,0-.48-4,9.52,9.52,0,0,0-1.45-3.15A6.63,6.63,0,0,0,188.28,1a6.9,6.9,0,0,0-3.26.73,6.69,6.69,0,0,0-2.35,2.05A9.32,9.32,0,0,0,181.23,7a15.71,15.71,0,0,0-.48,4,16.2,16.2,0,0,0,.48,4.06,9.78,9.78,0,0,0,1.44,3.22,6.52,6.52,0,0,0,5.61,2.88Z"/><path d="M31,.48V1.86h-8.5V7.08h4.8V8.46h-4.8V20.34H31v1.37H19V.48Z"/><path d="M0,.48H6.73c5.17,0,8,2.65,8,7.57,0,4.69-1.35,7.1-4.42,8.21a11.29,11.29,0,0,1-6.71,0v5.44H0ZM3.57,15.06c.41.14,3.09.94,4.72.14,2.64-1.29,2.58-3.56,2.58-6.94,0-3.86-1.39-6.21-4.77-6.21H3.57Z"/><path d="M37.1,35.07v1.38H28.6V48.32h4.8V49.7H28.6v5.23h8.5V56.3H25V35.07Z"/><path d="M135.24,35.8a2.67,2.67,0,0,1,1.68-.76V56.3h-3.57V41.76C133.35,38.11,134.61,36.42,135.24,35.8Z"/><path d="M93.56,35.07h7.37a12.1,12.1,0,0,1,3.35.41,7,7,0,0,1,2.4,1.14,4.88,4.88,0,0,1,1.45,1.76,5.07,5.07,0,0,1,.48,2.21,4.61,4.61,0,0,1-.37,1.86A5,5,0,0,1,107.18,44a6.15,6.15,0,0,1-1.64,1.2,9.62,9.62,0,0,1-2.11.8l5.22,10.29H104.5l-4.87-10h-2.5v10H93.56Zm3.57,10.18H99.2a7.18,7.18,0,0,0,2.22-.32,5.52,5.52,0,0,0,1.76-.9,4.2,4.2,0,0,0,1.16-1.42,4.08,4.08,0,0,0,.42-1.87,4.56,4.56,0,0,0-.33-1.76,3.87,3.87,0,0,0-.93-1.37,4.27,4.27,0,0,0-1.43-.89,4.8,4.8,0,0,0-1.8-.32H97.13Z"/><path d="M113.14,35.07h7.37a12,12,0,0,1,3.35.41,7,7,0,0,1,2.4,1.14,4.88,4.88,0,0,1,1.45,1.76,5.08,5.08,0,0,1,.49,2.21,4.62,4.62,0,0,1-.38,1.86A5,5,0,0,1,126.76,44a6.15,6.15,0,0,1-1.64,1.2A9.62,9.62,0,0,1,123,46l5.22,10.29h-4.15l-4.87-10h-2.49v10h-3.58Zm3.58,10.18h2.06a7.18,7.18,0,0,0,2.22-.32,5.42,5.42,0,0,0,1.76-.9,4.08,4.08,0,0,0,1.58-3.29A4.56,4.56,0,0,0,124,39a3.87,3.87,0,0,0-.93-1.37,4.33,4.33,0,0,0-1.42-.89,4.85,4.85,0,0,0-1.81-.32h-3.13Z"/><path d="M154.33,56.8a12.13,12.13,0,0,1-4.61-.88A11.71,11.71,0,0,1,146,53.51a11.28,11.28,0,0,1-2.48-3.57,10.84,10.84,0,0,1-.5-7.3A10.46,10.46,0,0,1,144.19,40,11,11,0,0,1,146,37.8a11.37,11.37,0,0,1,2.36-1.71A11.93,11.93,0,0,1,151.18,35a12.92,12.92,0,0,1,6.3,0,11.93,11.93,0,0,1,2.81,1.11,10.87,10.87,0,0,1,2.36,1.71A11,11,0,0,1,164.47,40a10.13,10.13,0,0,1,1.17,2.62,10.58,10.58,0,0,1,.41,2.93,10.82,10.82,0,0,1-1.58,5.66,11,11,0,0,1-1.82,2.27,11.42,11.42,0,0,1-2.36,1.76,12,12,0,0,1-2.81,1.14A12.47,12.47,0,0,1,154.33,56.8Zm0-1.06a6.6,6.6,0,0,0,3.22-.76,6.86,6.86,0,0,0,2.37-2.12,10,10,0,0,0,1.45-3.22,16.23,16.23,0,0,0,.48-4.07,15.83,15.83,0,0,0-.48-4,9.56,9.56,0,0,0-1.45-3.14,6.66,6.66,0,0,0-2.37-2,6.82,6.82,0,0,0-3.22-.73,6.9,6.9,0,0,0-3.26.73,6.51,6.51,0,0,0-2.35,2,9.35,9.35,0,0,0-1.44,3.14,15.83,15.83,0,0,0-.48,4,16.23,16.23,0,0,0,.48,4.07,9.78,9.78,0,0,0,1.44,3.22,6.52,6.52,0,0,0,5.61,2.88Z"/><path d="M0,35.07H7.08a22.46,22.46,0,0,1,5.62.61,9.46,9.46,0,0,1,3.92,2,10.17,10.17,0,0,1,2.7,3.52,10.41,10.41,0,0,1,.9,4.34,11.11,11.11,0,0,1-.8,4.21,9.73,9.73,0,0,1-2.37,3.44,11.12,11.12,0,0,1-3.86,2.31,15.08,15.08,0,0,1-5.26.85H0ZM3.57,54.75h3.8a9.63,9.63,0,0,0,3.37-.59,7.94,7.94,0,0,0,2.77-1.76,8.35,8.35,0,0,0,1.85-2.88,10.47,10.47,0,0,0,.69-4A9.82,9.82,0,0,0,15.4,42a8.23,8.23,0,0,0-1.79-2.82,8.08,8.08,0,0,0-2.75-1.85,9.17,9.17,0,0,0-3.48-.65H3.57Z"/><path d="M80,34.59,90,56.3H86.37l-3.24-7.08H74.88L72.26,56.3h-1.8l8.65-21.71Zm-4.5,13.26h7l-3.85-8.41Z"/><path d="M50.71,35.07h7.76c4,0,6.49,1.12,6.49,3.7a3.59,3.59,0,0,1-1.88,3.48v.06c.75.12,5,2.09,5,6.57s-2.83,7.42-7.41,7.42H50.71Zm3.57,6.52h3.14c3.66,0,4.27-1.31,4.27-2.82s-1.43-2.29-4.58-2.29H54.28Zm0,13.16h3.44C63,54.74,64.2,50.9,64.2,49A5.89,5.89,0,0,0,58,42.9H54.28Z"/></svg>