<svg width="70" height="70" viewBox="0 0 70 70" fill="none" xmlns="http://www.w3.org/2000/svg">
<g style="mix-blend-mode:multiply">
<path d="M34.9838 67.5161C52.9071 67.5161 67.4368 52.9864 67.4368 35.0631C67.4368 17.1398 52.9071 2.61011 34.9838 2.61011C17.0605 2.61011 2.53076 17.1398 2.53076 35.0631C2.53076 52.9864 17.0605 67.5161 34.9838 67.5161Z" stroke="#2A2927" stroke-width="4"/>
</g>
<g style="mix-blend-mode:multiply">
<path d="M39.084 53.863C34.0419 53.8114 29.2238 51.7723 25.6766 48.1886C22.1294 44.605 20.1396 39.7663 20.1396 34.724C20.1396 29.6816 22.1294 24.8429 25.6766 21.2593C29.2238 17.6756 34.0419 15.6365 39.084 15.585" stroke="#2A2927" stroke-width="1.536"/>
</g>
<g style="mix-blend-mode:multiply">
<path d="M39.2082 45.5879C36.3656 45.5063 33.6668 44.3198 31.6851 42.2803C29.7033 40.2408 28.5947 37.5091 28.5947 34.6654C28.5947 31.8217 29.7033 29.09 31.6851 27.0505C33.6668 25.0111 36.3656 23.8245 39.2082 23.7429" stroke="#2A2927" stroke-width="1.536"/>
</g>
<path d="M38.5209 38.3071C37.6115 38.2916 36.7445 37.9195 36.1068 37.2709C35.4692 36.6223 35.1118 35.7491 35.1118 34.8396C35.1118 33.93 35.4692 33.0568 36.1068 32.4082C36.7445 31.7596 37.6115 31.3875 38.5209 31.3721" stroke="#2A2927" stroke-width="1.536"/>
</svg>
