<svg width="68" height="68" viewBox="0 0 68 68" fill="none" xmlns="http://www.w3.org/2000/svg">
<g style="mix-blend-mode:multiply">
<path d="M33.688 65.0779C51.085 65.0779 65.188 50.9748 65.188 33.5779C65.188 16.1809 51.085 2.07788 33.688 2.07788C16.291 2.07788 2.18799 16.1809 2.18799 33.5779C2.18799 50.9748 16.291 65.0779 33.688 65.0779Z" stroke="#2A2927" stroke-width="4"/>
</g>
<g style="mix-blend-mode:multiply">
<path fill-rule="evenodd" clip-rule="evenodd" d="M33.6269 22.312C45.5799 22.312 55.2689 27.326 55.2689 33.512C55.2689 39.698 45.5789 44.712 33.6269 44.712C21.6749 44.712 11.9849 39.7 11.9849 33.511C11.9849 27.322 21.6739 22.312 33.6269 22.312Z" stroke="#2A2927" stroke-width="1.536"/>
</g>
<path d="M33.781 44.657C39.839 44.657 44.75 39.746 44.75 33.688C44.75 27.63 39.839 22.719 33.781 22.719C27.723 22.719 22.812 27.63 22.812 33.688C22.812 39.746 27.723 44.657 33.781 44.657Z" stroke="#2A2927" stroke-width="1.536"/>
</svg>
