<svg id="Objects" xmlns="http://www.w3.org/2000/svg" viewBox="0 0 51.11 51.11"><circle cx="25.55" cy="25.55" r="25" style="fill:none;stroke:#131313;stroke-miterlimit:10;stroke-width:1.1061661986847087px"/><path d="M35,37.57c-.58,1.44-1.41,1.79-2.95,1.27-1.75-1-3.29-2.24-5-3.24Q25,34.17,22.89,32.74a2.66,2.66,0,0,1-1.21-1.41,1.59,1.59,0,0,1,.45-1.18c.89-.88,7.79-7.55,8.6-8.59.15-.19.43-.39.19-.66s-.49,0-.71.08c-1.69,1.07-11,7.15-11.49,7.48a4.7,4.7,0,0,1-3.9.73A30.18,30.18,0,0,1,9.2,27.38c-.53-.65-.47-1,.21-1.57s25.71-11,26.75-11.22c.36-.08.55-.16.9-.22a1.2,1.2,0,0,1,1.41,1.14C38.57,16.87,35.19,37.14,35,37.57Z" style="fill:none;stroke:#131313;stroke-miterlimit:10;stroke-width:1.1061661986847087px"/></svg>