<svg width="44" height="44" viewBox="0 0 44 44" fill="none" xmlns="http://www.w3.org/2000/svg">
<path d="M22 1C26.1336 1.01385 30.1705 2.25137 33.6017 4.55649C37.0328 6.86162 39.7046 10.1311 41.2801 13.9527C42.8555 17.7743 43.2641 21.9768 42.4543 26.0303C41.6445 30.0838 39.6525 33.8067 36.7296 36.7296C33.8067 39.6525 30.0838 41.6445 26.0303 42.4543C21.9768 43.2641 17.7743 42.8555 13.9527 41.2801C10.1311 39.7046 6.86163 37.0328 4.5565 33.6017C2.25138 30.1705 1.01386 26.1336 1.00001 22C1.00001 16.4305 3.2125 11.089 7.15077 7.15076C11.089 3.21249 16.4305 1 22 1V1ZM22 0C17.6488 0 13.3953 1.29028 9.77746 3.70767C6.15958 6.12506 3.33979 9.56099 1.67466 13.581C0.00953233 17.6009 -0.426141 22.0244 0.422734 26.292C1.27161 30.5596 3.36691 34.4796 6.44366 37.5564C9.52042 40.6331 13.4404 42.7284 17.708 43.5773C21.9756 44.4261 26.3991 43.9905 30.419 42.3253C34.439 40.6602 37.875 37.8404 40.2923 34.2225C42.7097 30.6047 44 26.3512 44 22C44 16.1652 41.6822 10.5695 37.5564 6.44365C33.4306 2.31785 27.8348 0 22 0V0Z" fill="#2A2927"/>
<path d="M14.1899 13.89L29.9899 29.69" stroke="#2A2927" stroke-width="2" stroke-miterlimit="10"/>
<path d="M29.9899 13.89L14.1899 29.69" stroke="#2A2927" stroke-width="2" stroke-miterlimit="10"/>
</svg>
