<svg id="Objects" xmlns="http://www.w3.org/2000/svg" viewBox="0 0 51.11 51.11"><circle cx="25.55" cy="25.55" r="25" style="fill:none;stroke:#131313;stroke-miterlimit:10;stroke-width:1.1061661986847338px"/><path d="M12,35.86a16.36,16.36,0,0,0,8.84,2.59c10.7,0,16.74-9,16.38-17.15a11.62,11.62,0,0,0,2.87-3,11.43,11.43,0,0,1-3.31.91A5.77,5.77,0,0,0,39.36,16a11.68,11.68,0,0,1-3.66,1.4,5.77,5.77,0,0,0-9.82,5.26,16.36,16.36,0,0,1-11.88-6,5.77,5.77,0,0,0,1.78,7.7,5.79,5.79,0,0,1-2.61-.72,5.77,5.77,0,0,0,4.62,5.72,5.81,5.81,0,0,1-2.6.1,5.76,5.76,0,0,0,5.38,4A11.58,11.58,0,0,1,12,35.86Z" style="fill:none;stroke:#131313;stroke-miterlimit:10;stroke-width:1.1061661986847338px"/></svg>