<svg id="Objects" xmlns="http://www.w3.org/2000/svg" viewBox="0 0 51.11 51.11"><path d="M8.23,24.25a.16.16,0,0,0-.16-.16.17.17,0,0,0-.17.16l-.39,3.57.39,3.49a.17.17,0,0,0,.17.16.16.16,0,0,0,.16-.16l.45-3.49Z" style="fill:#131313"/><path d="M14.4,21a.3.3,0,0,0-.3.3l-.32,6.57.32,4.25a.3.3,0,0,0,.3.3.31.31,0,0,0,.3-.3h0l.35-4.25-.35-6.57A.31.31,0,0,0,14.4,21Z" style="fill:#131313"/><path d="M11.21,23.23a.24.24,0,0,0-.24.23l-.35,4.36L11,32a.24.24,0,0,0,.47,0l.4-4.21-.4-4.36A.24.24,0,0,0,11.21,23.23Z" style="fill:#131313"/><path d="M17.64,32.37A.38.38,0,0,0,18,32l.3-4.18L18,19.07a.37.37,0,0,0-.37-.36.37.37,0,0,0-.37.36L17,27.82,17.27,32A.38.38,0,0,0,17.64,32.37Z" style="fill:#131313"/><path d="M24.27,32.39a.52.52,0,0,0,.51-.51h0L25,27.83l-.21-10.11a.51.51,0,0,0-.51-.5.5.5,0,0,0-.5.5l-.19,10.1.19,4.07A.51.51,0,0,0,24.27,32.39Z" style="fill:#131313"/><path d="M20.93,32.37a.44.44,0,0,0,.44-.44h0l.26-4.12L21.37,19a.44.44,0,0,0-.88,0l-.23,8.81.23,4.12A.44.44,0,0,0,20.93,32.37Z" style="fill:#131313"/><path d="M41,22.61a5,5,0,0,0-1.9.38,8.63,8.63,0,0,0-11.73-7.28c-.36.14-.46.29-.47.57V31.81a.6.6,0,0,0,.53.58H41a4.9,4.9,0,0,0,0-9.79Z" style="fill:none;stroke:#131313;stroke-miterlimit:10;stroke-width:1.1061661986847338px"/><circle cx="25.55" cy="25.55" r="25" style="fill:none;stroke:#131313;stroke-miterlimit:10;stroke-width:1.1061661986847338px"/></svg>