<svg id="Objects" xmlns="http://www.w3.org/2000/svg" viewBox="0 0 51.11 51.11"><circle cx="25.55" cy="25.55" r="25" style="fill:none;stroke:#131313;stroke-miterlimit:10;stroke-width:1.1061661986847087px"/><path d="M25.55,14.22c3.86,0,4.32,0,5.84.08a8.12,8.12,0,0,1,2.69.5,4.59,4.59,0,0,1,1.66,1.08,4.46,4.46,0,0,1,1.08,1.66,8.12,8.12,0,0,1,.5,2.69c.07,1.52.08,2,.08,5.84s0,4.32-.08,5.84a8,8,0,0,1-.5,2.68,4.42,4.42,0,0,1-1.08,1.67,4.72,4.72,0,0,1-1.66,1.08,8.2,8.2,0,0,1-2.69.49c-1.52.07-2,.09-5.84.09s-4.31,0-5.84-.09A8.12,8.12,0,0,1,17,37.34a4.55,4.55,0,0,1-1.66-1.08,4.42,4.42,0,0,1-1.08-1.67,7.79,7.79,0,0,1-.5-2.68c-.07-1.52-.09-2-.09-5.84s0-4.32.09-5.84a7.86,7.86,0,0,1,.5-2.69A4.78,4.78,0,0,1,17,14.8a8,8,0,0,1,2.68-.5c1.53-.07,2-.08,5.84-.08m0-2.6c-3.92,0-4.41,0-6,.08a10.74,10.74,0,0,0-3.5.67,7.42,7.42,0,0,0-4.23,4.23,10.54,10.54,0,0,0-.67,3.51c-.07,1.54-.09,2-.09,6s0,4.42.09,6a10.54,10.54,0,0,0,.67,3.51,7.37,7.37,0,0,0,4.23,4.22,10.45,10.45,0,0,0,3.5.68c1.55.07,2,.08,6,.08s4.42,0,6-.08A10.52,10.52,0,0,0,35,39.76a7.09,7.09,0,0,0,2.56-1.66,7.21,7.21,0,0,0,1.67-2.56A10.54,10.54,0,0,0,39.92,32c.07-1.54.09-2,.09-6s0-4.42-.09-6a10.54,10.54,0,0,0-.67-3.51A7.42,7.42,0,0,0,35,12.37a10.8,10.8,0,0,0-3.51-.67c-1.54-.07-2-.08-6-.08" style="fill:none;stroke:#131313;stroke-miterlimit:10;stroke-width:1.1061661986847087px"/><path d="M25.55,18.65A7.42,7.42,0,1,0,33,26.07a7.42,7.42,0,0,0-7.43-7.42m0,12.24a4.82,4.82,0,1,1,4.82-4.82,4.81,4.81,0,0,1-4.82,4.82" style="fill:none;stroke:#131313;stroke-miterlimit:10;stroke-width:1.1061661986847087px"/><path d="M35,18.35a1.74,1.74,0,1,1-1.73-1.73A1.73,1.73,0,0,1,35,18.35" style="fill:none;stroke:#131313;stroke-miterlimit:10;stroke-width:1.1061661986847087px"/></svg>